<?xml version="1.0" encoding="UTF-8" standalone="no" ?>
<!DOCTYPE svg PUBLIC "-//W3C//DTD SVG 1.1 /EN" "http://www.w3.org/Graphics/SVG/1.1/DTD/svg11.dtd">
<svg width="440.0" height="300.0" version="1.1" xmlns="http://www.w3.org/2000/svg" xmlns:xlink="http://www.w3.org/1999/xlink" xml:space="preserve" name="">
  <defs>
    <clipPath id="path0">
      <path d="M-9.58 8.39 L-9.58 308.39 430.42 308.39 430.42 8.39 -9.58 8.39 Z" clip-rule="evenodd"/>
    </clipPath>
    <clipPath id="path1">
      <path d="M49.48 81.56 L49.48 269.36 398.32 269.36 398.32 81.56 49.48 81.56 Z" clip-rule="nonzero"/>
    </clipPath>
    <clipPath id="path2">
      <path d="M49.48 81.56 L49.48 269.36 398.32 269.36 398.32 81.56 49.48 81.56 Z" clip-rule="nonzero"/>
    </clipPath>
    <clipPath id="path3">
      <path d="M-8.24 14.12 L-8.24 305.48 430.37 305.48 430.37 14.12 -8.24 14.12 Z" clip-rule="nonzero"/>
    </clipPath>
  </defs>
  <g transform="matrix(1.0 0.0 -0.0 -1.0 0.0 300.0) ">
    <g clip-path="url(#path0)" transform="matrix(1.0 0.0 0.0 1.0 9.58 -8.39) " id="">
      <g>
        <path d="M49.51 119.6 L397.63 119.6  M49.51 157.04 L397.63 157.04  M49.51 194.48 L397.63 194.48  M49.51 231.92 L397.63 231.92  M49.51 269.27 L397.63 269.27 " fill="none" stroke="#D9D9D9" stroke-width="0.75" stroke-miterlimit="28.65" stroke-linejoin="round" id=""/>
        <path d="M49.51 269.27 L49.51 82.24  M84.29 269.27 L84.29 82.24  M119.09 269.27 L119.09 82.24  M154.01 269.27 L154.01 82.24  M188.81 269.27 L188.81 82.24  M223.61 269.27 L223.61 82.24  M258.41 269.27 L258.41 82.24  M293.21 269.27 L293.21 82.24  M328.01 269.27 L328.01 82.24  M362.81 269.27 L362.81 82.24  M397.63 269.27 L397.63 82.24 " fill="none" stroke="#D9D9D9" stroke-width="0.75" stroke-miterlimit="28.65" stroke-linejoin="round" id=""/>
        <path d="M49.51 82.24 L397.63 82.24 " fill="none" stroke="#D9D9D9" stroke-width="0.75" stroke-miterlimit="28.65" stroke-linejoin="round" id=""/>
        <path d="M49.51 85.09 L49.51 82.24  M84.29 85.09 L84.29 82.24  M119.09 85.09 L119.09 82.24  M154.01 85.09 L154.01 82.24  M188.81 85.09 L188.81 82.24  M223.61 85.09 L223.61 82.24  M258.41 85.09 L258.41 82.24  M293.21 85.09 L293.21 82.24  M328.01 85.09 L328.01 82.24  M362.81 85.09 L362.81 82.24  M397.63 85.09 L397.63 82.24 " fill="none" stroke="#D9D9D9" stroke-width="0.75" stroke-miterlimit="28.65" stroke-linejoin="round" id=""/>
        <g>
          <g clip-path="url(#path1)">
            <path d="M49.51 83.22 C109.39 83.2 171.18 83.18 229.14 83.16 287.09 83.14 341.22 83.13 397.26 83.12 " fill="none" stroke="#F95FE8" stroke-width="2.25" stroke-miterlimit="28.65" stroke-linecap="butt" stroke-linejoin="round"/>
          </g>
          <g clip-path="url(#path1)">
            <path d="M-505.95 167.47 C-371.55 157.55 -212.85 146.51 -102.75 137.73 7.35 128.95 91.79 121.04 154.64 114.8 214.61 108.85 249.52 103.92 274.3 100.29 292.65 97.61 306.19 92.98 310.45 92.01 " fill="none" stroke="#5B9BD4" stroke-width="2.25" stroke-miterlimit="28.65" stroke-linecap="butt" stroke-linejoin="round"/>
          </g>
        </g>
        <path d="M318.65 231.57 C327.95 224.13 338.83 216.02 346.57 209.26 354.3 202.49 359.86 196.68 365.04 190.98 370.21 185.28 373.42 180.36 377.61 175.06 " fill="none" stroke="#EC7C30" stroke-width="2.25" stroke-miterlimit="28.65" stroke-linecap="butt" stroke-linejoin="round" id=""/>
        <g clip-path="url(#path2)" id="">
          <path d="M36.73 401.96 C90.05 377.15 149.7 352.86 196.67 327.53 243.64 302.2 293.6 267.02 318.56 249.98 333.94 239.48 341.67 229.96 346.44 225.29 354.18 217.7 359.79 211.05 364.97 204.48 370.16 197.91 373.36 192.07 377.55 185.86 " fill="none" stroke="#6FAC46" stroke-width="2.25" stroke-miterlimit="28.65" stroke-linecap="butt" stroke-linejoin="round"/>
        </g>
        <text x="0.0" y="0.0" fill="#585858" font-family="Calibri" font-size="9.0" kerning="auto" letter-spacing="0.0" word-spacing="0.0" transform="translate(36.61 79.7) scale(1.0 -1.0) " id="">0</text>
        <text x="0.0 4.56152344 9.12304688" y="0.0 0.0 0.0" fill="#585858" font-family="Calibri" font-size="9.0" kerning="auto" letter-spacing="0.0" word-spacing="0.0" transform="translate(27.49 117.11) scale(1.0 -1.0) " id="">500</text>
        <text x="0.0 4.56152344 9.12304688 13.68" y="0.0 0.0 0.0 0.0" fill="#585858" font-family="Calibri" font-size="9.0" kerning="auto" letter-spacing="0.0" word-spacing="0.0" transform="translate(22.93 154.51) scale(1.0 -1.0) " id="">1000</text>
        <text x="0.0 4.56152344 9.12304688 13.68" y="0.0 0.0 0.0 0.0" fill="#585858" font-family="Calibri" font-size="9.0" kerning="auto" letter-spacing="0.0" word-spacing="0.0" transform="translate(22.93 191.92) scale(1.0 -1.0) " id="">1500</text>
        <text x="0.0 4.56152344 9.12304688 13.68" y="0.0 0.0 0.0 0.0" fill="#585858" font-family="Calibri" font-size="9.0" kerning="auto" letter-spacing="0.0" word-spacing="0.0" transform="translate(22.93 229.32) scale(1.0 -1.0) " id="">2000</text>
        <text x="0.0 4.56152344 9.12304688 13.68" y="0.0 0.0 0.0 0.0" fill="#585858" font-family="Calibri" font-size="9.0" kerning="auto" letter-spacing="0.0" word-spacing="0.0" transform="translate(22.93 266.72) scale(1.0 -1.0) " id="">2500</text>
        <text x="0.0 4.56152344 6.83349609 11.4 15.96" y="0.0 0.0 0.0 0.0 0.0" fill="#585858" font-family="Calibri" font-size="9.0" kerning="auto" letter-spacing="0.0" word-spacing="0.0" transform="translate(39.26 67.99) scale(1.0 -1.0) " id="">0.900</text>
        <text x="0.0 4.56152344 6.83349609 11.4 15.96" y="0.0 0.0 0.0 0.0 0.0" fill="#585858" font-family="Calibri" font-size="9.0" kerning="auto" letter-spacing="0.0" word-spacing="0.0" transform="translate(74.07 67.99) scale(1.0 -1.0) " id="">0.910</text>
        <text x="0.0 4.56152344 6.83349609 11.4 15.96" y="0.0 0.0 0.0 0.0 0.0" fill="#585858" font-family="Calibri" font-size="9.0" kerning="auto" letter-spacing="0.0" word-spacing="0.0" transform="translate(108.88 67.99) scale(1.0 -1.0) " id="">0.920</text>
        <text x="0.0 4.56152344 6.83349609 11.4 15.96" y="0.0 0.0 0.0 0.0 0.0" fill="#585858" font-family="Calibri" font-size="9.0" kerning="auto" letter-spacing="0.0" word-spacing="0.0" transform="translate(143.7 67.99) scale(1.0 -1.0) " id="">0.930</text>
        <text x="0.0 4.56152344 6.83349609 11.4 15.96" y="0.0 0.0 0.0 0.0 0.0" fill="#585858" font-family="Calibri" font-size="9.0" kerning="auto" letter-spacing="0.0" word-spacing="0.0" transform="translate(178.51 67.99) scale(1.0 -1.0) " id="">0.940</text>
        <text x="0.0 4.56152344 6.83349609 11.4 15.96" y="0.0 0.0 0.0 0.0 0.0" fill="#585858" font-family="Calibri" font-size="9.0" kerning="auto" letter-spacing="0.0" word-spacing="0.0" transform="translate(213.32 67.99) scale(1.0 -1.0) " id="">0.950</text>
        <text x="0.0 4.56152344 6.83349609 11.4 15.96" y="0.0 0.0 0.0 0.0 0.0" fill="#585858" font-family="Calibri" font-size="9.0" kerning="auto" letter-spacing="0.0" word-spacing="0.0" transform="translate(248.13 67.99) scale(1.0 -1.0) " id="">0.960</text>
        <text x="0.0 4.56152344 6.83349609 11.4 15.96" y="0.0 0.0 0.0 0.0 0.0" fill="#585858" font-family="Calibri" font-size="9.0" kerning="auto" letter-spacing="0.0" word-spacing="0.0" transform="translate(282.94 67.99) scale(1.0 -1.0) " id="">0.970</text>
        <text x="0.0 4.56152344 6.83349609 11.4 15.96" y="0.0 0.0 0.0 0.0 0.0" fill="#585858" font-family="Calibri" font-size="9.0" kerning="auto" letter-spacing="0.0" word-spacing="0.0" transform="translate(317.76 67.99) scale(1.0 -1.0) " id="">0.980</text>
        <text x="0.0 4.56152344 6.83349609 11.4 15.96" y="0.0 0.0 0.0 0.0 0.0" fill="#585858" font-family="Calibri" font-size="9.0" kerning="auto" letter-spacing="0.0" word-spacing="0.0" transform="translate(352.57 67.99) scale(1.0 -1.0) " id="">0.990</text>
        <text x="0.0 4.56152344 6.83349609 11.4 15.96" y="0.0 0.0 0.0 0.0 0.0" fill="#585858" font-family="Calibri" font-size="9.0" kerning="auto" letter-spacing="0.0" word-spacing="0.0" transform="translate(387.38 67.99) scale(1.0 -1.0) " id="">1.000</text>
        <g>
          <text x="0.0 5.23289061 8.57396479 13.53 17.74 20.03 23.92 26.21 31.46 36.69" y="0.0 0.0 0.0 0.0 0.0 0.0 0.0 0.0 0.0 0.0" fill="#585858" font-family="Calibri" font-size="9.96000004" kerning="auto" letter-spacing="0.0" word-spacing="0.0" transform="translate(190.81 53.06) scale(1.0 -1.0) ">precision </text>
          <text x="0.0 8.90466785" y="0.0 0.0" fill="#585858" font-family="Calibri" font-size="9.96000004" kerning="auto" letter-spacing="0.0" word-spacing="0.0" transform="translate(229.76 53.06) scale(1.0 -1.0) ">@ </text>
          <text x="0.0 5.04808617 10.1" y="0.0 0.0 0.0" fill="#585858" font-family="Calibri" font-size="9.96000004" kerning="auto" letter-spacing="0.0" word-spacing="0.0" transform="translate(240.92 53.06) scale(1.0 -1.0) ">100</text>
        </g>
        <g>
          <text x="0.0 8.12373066 17.19 26.25 32.7" y="0.0 0.0 0.0 0.0 0.0" fill="#585858" font-family="Calibri" font-size="14.04" kerning="auto" letter-spacing="0.0" word-spacing="0.0" transform="translate(140.74 284.66) scale(1.0 -1.0) ">ANNS </text>
          <text x="0.0 4.70285177 7.92492199 19.14 22.36 29.74 36.35" y="0.0 0.0 0.0 0.0 0.0 0.0 0.0" fill="#585858" font-family="Calibri" font-size="14.04" kerning="auto" letter-spacing="0.0" word-spacing="0.0" transform="translate(176.62 284.66) scale(1.0 -1.0) ">timing </text>
          <text x="0.0 3.98988283 11.39 16.29" y="0.0 0.0 0.0 0.0" fill="#585858" font-family="Calibri" font-size="14.04" kerning="auto" letter-spacing="0.0" word-spacing="0.0" transform="translate(216.14 284.66) scale(1.0 -1.0) ">for </text>
          <text x="0.0 6.45099592 9.98841786 16.44 23.28 30.4" y="0.0 0.0 0.0 0.0 0.0 0.0" fill="#585858" font-family="Calibri" font-size="14.04" kerning="auto" letter-spacing="0.0" word-spacing="0.0" transform="translate(235.6 284.66) scale(1.0 -1.0) ">SIFT1M</text>
        </g>
        <path d="M49.98 32.93 L69.18 32.93 " fill="none" stroke="#F95FE8" stroke-width="2.25" stroke-miterlimit="28.65" stroke-linecap="butt" stroke-linejoin="round" id=""/>
        <path d="M74.95 35.76 Q74.95 35.68 74.94 35.62 74.93 35.55 74.91 35.52 74.89 35.48 74.86 35.46 74.83 35.45 74.8 35.45 L72.72 35.45 72.72 33.51 74.69 33.51 Q74.72 33.51 74.75 33.5 74.77 33.48 74.8 33.45 74.82 33.41 74.83 33.35 74.84 33.29 74.84 33.2 74.84 33.12 74.83 33.06 74.82 33.0 74.8 32.96 74.77 32.92 74.75 32.9 74.72 32.88 74.69 32.88 L72.72 32.88 72.72 30.51 Q72.72 30.48 72.7 30.46 72.68 30.43 72.64 30.41 72.59 30.4 72.52 30.38 72.45 30.37 72.34 30.37 72.23 30.37 72.16 30.38 72.08 30.4 72.04 30.41 72.0 30.43 71.98 30.46 71.96 30.48 71.96 30.51 L71.96 35.78 Q71.96 35.95 72.05 36.02 72.14 36.09 72.24 36.09 L74.8 36.09 Q74.83 36.09 74.86 36.07 74.89 36.05 74.91 36.01 74.93 35.97 74.94 35.91 74.95 35.84 74.95 35.76 Z" fill="#585858" fill-rule="nonzero"/>
        <path d="M78.93 30.51 Q78.93 30.45 78.9 30.43 78.86 30.4 78.8 30.39 78.74 30.37 78.62 30.37 78.51 30.37 78.44 30.39 78.37 30.4 78.34 30.43 78.31 30.45 78.31 30.51 L78.31 30.9 Q78.05 30.62 77.73 30.47 77.41 30.32 77.06 30.32 76.75 30.32 76.49 30.4 76.24 30.48 76.06 30.63 75.88 30.79 75.79 31.01 75.69 31.24 75.69 31.52 75.69 31.85 75.82 32.1 75.96 32.35 76.21 32.51 76.47 32.67 76.84 32.75 77.21 32.83 77.67 32.83 L78.21 32.83 78.21 33.14 Q78.21 33.37 78.17 33.55 78.12 33.72 78.01 33.84 77.9 33.96 77.73 34.01 77.56 34.07 77.31 34.07 77.04 34.07 76.83 34.01 76.61 33.95 76.45 33.87 76.29 33.79 76.19 33.73 76.08 33.67 76.03 33.67 75.99 33.67 75.96 33.68 75.94 33.7 75.92 33.74 75.9 33.77 75.89 33.83 75.88 33.88 75.88 33.95 75.88 34.06 75.9 34.12 75.91 34.18 75.97 34.24 76.03 34.3 76.17 34.37 76.32 34.45 76.51 34.52 76.7 34.58 76.92 34.62 77.15 34.66 77.37 34.66 77.8 34.66 78.1 34.57 78.4 34.47 78.58 34.28 78.77 34.1 78.85 33.82 78.93 33.54 78.93 33.17 L78.93 30.51 Z M78.21 32.31 L77.59 32.31 Q77.3 32.31 77.08 32.26 76.86 32.21 76.71 32.11 76.57 32.01 76.5 31.87 76.43 31.74 76.43 31.56 76.43 31.25 76.63 31.07 76.82 30.88 77.17 30.88 77.46 30.88 77.7 31.03 77.95 31.17 78.21 31.47 L78.21 32.31 Z" fill="#585858" fill-rule="nonzero"/>
        <path d="M81.0 30.51 Q81.0 30.47 80.98 30.45 80.96 30.43 80.93 30.41 80.89 30.39 80.82 30.38 80.75 30.37 80.64 30.37 80.53 30.37 80.46 30.38 80.39 30.39 80.35 30.41 80.31 30.43 80.29 30.45 80.27 30.47 80.27 30.51 L80.27 34.47 Q80.27 34.5 80.29 34.52 80.31 34.55 80.35 34.57 80.39 34.58 80.46 34.59 80.53 34.6 80.64 34.6 80.75 34.6 80.82 34.59 80.89 34.58 80.93 34.57 80.96 34.55 80.98 34.52 81.0 34.5 81.0 34.47 L81.0 30.51 Z M81.08 35.8 Q81.08 35.55 80.99 35.45 80.89 35.36 80.63 35.36 80.38 35.36 80.28 35.45 80.19 35.54 80.19 35.79 80.19 36.05 80.28 36.14 80.38 36.23 80.64 36.23 80.89 36.23 80.99 36.14 81.08 36.05 81.08 35.8 Z" fill="#585858" fill-rule="nonzero" id=""/>
        <path d="M84.92 31.59 Q84.92 31.28 84.81 31.05 84.69 30.81 84.49 30.65 84.28 30.48 84.0 30.4 83.71 30.32 83.37 30.32 83.16 30.32 82.96 30.35 82.77 30.38 82.62 30.43 82.47 30.48 82.36 30.54 82.26 30.59 82.21 30.64 82.16 30.68 82.14 30.76 82.12 30.84 82.12 30.98 82.12 31.06 82.13 31.12 82.14 31.17 82.15 31.21 82.16 31.24 82.19 31.26 82.21 31.27 82.24 31.27 82.29 31.27 82.38 31.22 82.48 31.16 82.62 31.09 82.76 31.02 82.94 30.96 83.13 30.9 83.38 30.9 83.56 30.9 83.71 30.94 83.86 30.98 83.97 31.05 84.08 31.13 84.14 31.25 84.2 31.37 84.2 31.53 84.2 31.7 84.12 31.81 84.03 31.93 83.89 32.01 83.75 32.1 83.57 32.17 83.4 32.24 83.21 32.31 83.02 32.39 82.85 32.48 82.67 32.58 82.53 32.71 82.39 32.85 82.3 33.04 82.22 33.23 82.22 33.49 82.22 33.72 82.31 33.94 82.4 34.15 82.58 34.31 82.76 34.47 83.03 34.57 83.3 34.66 83.66 34.66 83.81 34.66 83.97 34.64 84.13 34.61 84.26 34.57 84.39 34.53 84.48 34.48 84.57 34.44 84.61 34.4 84.66 34.37 84.67 34.34 84.69 34.32 84.7 34.28 84.7 34.25 84.71 34.2 84.72 34.15 84.72 34.08 84.72 34.01 84.71 33.95 84.7 33.9 84.69 33.86 84.67 33.83 84.65 33.81 84.63 33.8 84.6 33.8 84.56 33.8 84.49 33.85 84.41 33.89 84.29 33.95 84.18 34.0 84.01 34.05 83.85 34.1 83.65 34.1 83.46 34.1 83.32 34.06 83.18 34.02 83.09 33.94 83.0 33.86 82.96 33.76 82.91 33.65 82.91 33.53 82.91 33.36 83.0 33.24 83.09 33.12 83.23 33.04 83.37 32.95 83.55 32.88 83.73 32.81 83.91 32.73 84.1 32.66 84.28 32.57 84.47 32.47 84.61 32.34 84.75 32.21 84.83 32.03 84.92 31.84 84.92 31.59 Z" fill="#585858" fill-rule="nonzero" id=""/>
        <path d="M88.4 31.59 Q88.4 31.28 88.29 31.05 88.17 30.81 87.97 30.65 87.76 30.48 87.48 30.4 87.19 30.32 86.85 30.32 86.64 30.32 86.44 30.35 86.25 30.38 86.1 30.43 85.95 30.48 85.84 30.54 85.74 30.59 85.69 30.64 85.64 30.68 85.62 30.76 85.6 30.84 85.6 30.98 85.6 31.06 85.61 31.12 85.62 31.17 85.63 31.21 85.64 31.24 85.67 31.26 85.69 31.27 85.72 31.27 85.77 31.27 85.86 31.22 85.96 31.16 86.1 31.09 86.24 31.02 86.43 30.96 86.61 30.9 86.86 30.9 87.04 30.9 87.19 30.94 87.34 30.98 87.45 31.05 87.56 31.13 87.62 31.25 87.68 31.37 87.68 31.53 87.68 31.7 87.6 31.81 87.51 31.93 87.37 32.01 87.23 32.1 87.05 32.17 86.88 32.24 86.69 32.31 86.5 32.39 86.33 32.48 86.15 32.58 86.01 32.71 85.87 32.85 85.78 33.04 85.7 33.23 85.7 33.49 85.7 33.72 85.79 33.94 85.88 34.15 86.06 34.31 86.24 34.47 86.51 34.57 86.78 34.66 87.14 34.66 87.3 34.66 87.45 34.64 87.61 34.61 87.74 34.57 87.87 34.53 87.96 34.48 88.05 34.44 88.09 34.4 88.14 34.37 88.15 34.34 88.17 34.32 88.18 34.28 88.18 34.25 88.19 34.2 88.2 34.15 88.2 34.08 88.2 34.01 88.19 33.95 88.18 33.9 88.17 33.86 88.15 33.83 88.13 33.81 88.11 33.8 88.08 33.8 88.04 33.8 87.97 33.85 87.89 33.89 87.77 33.95 87.66 34.0 87.5 34.05 87.33 34.1 87.13 34.1 86.94 34.1 86.8 34.06 86.66 34.02 86.57 33.94 86.48 33.86 86.44 33.76 86.39 33.65 86.39 33.53 86.39 33.36 86.48 33.24 86.57 33.12 86.71 33.04 86.85 32.95 87.03 32.88 87.21 32.81 87.39 32.73 87.58 32.66 87.76 32.57 87.95 32.47 88.09 32.34 88.23 32.21 88.31 32.03 88.4 31.84 88.4 31.59 Z" fill="#585858" fill-rule="nonzero" id=""/>
        <path d="M92.94 36.46 Q92.52 35.57 92.32 34.64 92.11 33.71 92.11 32.77 92.11 31.83 92.32 30.9 92.53 29.97 92.93 29.08 92.95 29.03 92.96 28.99 92.96 28.95 92.93 28.93 92.9 28.91 92.83 28.89 92.77 28.88 92.66 28.88 92.58 28.88 92.52 28.89 92.47 28.89 92.42 28.91 92.38 28.92 92.36 28.94 92.33 28.95 92.32 28.98 92.08 29.42 91.9 29.88 91.72 30.34 91.6 30.82 91.47 31.29 91.41 31.78 91.35 32.26 91.35 32.76 91.35 33.26 91.42 33.74 91.49 34.22 91.61 34.7 91.74 35.18 91.92 35.64 92.1 36.1 92.32 36.55 92.33 36.57 92.35 36.58 92.36 36.6 92.4 36.61 92.44 36.62 92.5 36.63 92.56 36.64 92.65 36.64 92.76 36.64 92.82 36.62 92.88 36.61 92.91 36.59 92.95 36.57 92.95 36.53 92.96 36.5 92.94 36.46 Z" fill="#585858" fill-rule="nonzero" id=""/>
        <path d="M97.34 32.0 Q97.34 31.6 97.19 31.28 97.04 30.97 96.78 30.75 96.52 30.54 96.16 30.43 95.81 30.32 95.4 30.32 95.12 30.32 94.87 30.36 94.63 30.41 94.44 30.48 94.25 30.55 94.12 30.63 93.99 30.7 93.94 30.76 93.89 30.81 93.86 30.89 93.84 30.97 93.84 31.11 93.84 31.2 93.85 31.27 93.86 31.33 93.87 31.37 93.89 31.41 93.92 31.43 93.94 31.44 93.98 31.44 94.04 31.44 94.15 31.37 94.26 31.29 94.44 31.2 94.62 31.12 94.86 31.04 95.11 30.96 95.44 30.96 95.68 30.96 95.89 31.03 96.09 31.09 96.24 31.22 96.39 31.34 96.47 31.51 96.54 31.69 96.54 31.91 96.54 32.15 96.43 32.32 96.32 32.5 96.14 32.63 95.96 32.76 95.73 32.86 95.5 32.97 95.26 33.08 95.02 33.2 94.79 33.33 94.56 33.47 94.38 33.65 94.2 33.84 94.09 34.08 93.98 34.33 93.98 34.68 93.98 35.04 94.11 35.32 94.24 35.59 94.47 35.78 94.7 35.97 95.02 36.07 95.34 36.17 95.71 36.17 95.89 36.17 96.09 36.14 96.28 36.1 96.45 36.05 96.61 35.99 96.75 35.93 96.88 35.86 96.92 35.82 96.96 35.77 96.98 35.75 96.99 35.73 97.0 35.69 97.01 35.65 97.01 35.6 97.01 35.55 97.01 35.46 97.01 35.38 97.01 35.32 97.0 35.26 96.99 35.22 96.98 35.18 96.95 35.16 96.93 35.14 96.9 35.14 96.85 35.14 96.74 35.2 96.64 35.26 96.49 35.34 96.34 35.41 96.14 35.48 95.93 35.54 95.68 35.54 95.44 35.54 95.27 35.48 95.09 35.41 94.98 35.31 94.86 35.2 94.8 35.06 94.75 34.91 94.75 34.75 94.75 34.51 94.86 34.34 94.97 34.17 95.15 34.04 95.33 33.91 95.56 33.8 95.8 33.69 96.04 33.58 96.28 33.46 96.51 33.33 96.75 33.2 96.93 33.01 97.11 32.83 97.22 32.58 97.34 32.33 97.34 32.0 Z" fill="#585858" fill-rule="nonzero" id=""/>
        <path d="M101.12 31.11 Q101.12 31.04 101.11 30.98 101.11 30.93 101.1 30.89 101.09 30.85 101.07 30.82 101.06 30.8 101.0 30.74 100.95 30.69 100.81 30.6 100.68 30.52 100.52 30.46 100.35 30.4 100.16 30.36 99.97 30.32 99.76 30.32 99.33 30.32 99.0 30.46 98.67 30.6 98.45 30.87 98.23 31.14 98.11 31.53 98.0 31.93 98.0 32.44 98.0 33.02 98.14 33.44 98.28 33.86 98.53 34.13 98.78 34.4 99.12 34.53 99.45 34.66 99.84 34.66 100.03 34.66 100.21 34.62 100.39 34.59 100.54 34.53 100.69 34.47 100.8 34.4 100.92 34.32 100.97 34.27 101.03 34.22 101.05 34.19 101.07 34.16 101.08 34.12 101.09 34.07 101.1 34.02 101.1 33.97 101.1 33.89 101.1 33.72 101.06 33.65 101.02 33.58 100.96 33.58 100.9 33.58 100.81 33.65 100.73 33.73 100.6 33.81 100.46 33.9 100.28 33.98 100.09 34.05 99.84 34.05 99.31 34.05 99.03 33.65 98.75 33.24 98.75 32.48 98.75 32.1 98.83 31.81 98.9 31.52 99.04 31.33 99.18 31.13 99.38 31.04 99.59 30.95 99.85 30.95 100.1 30.95 100.29 31.02 100.48 31.1 100.62 31.2 100.76 31.29 100.85 31.37 100.95 31.45 101.0 31.45 101.03 31.45 101.05 31.43 101.07 31.41 101.09 31.37 101.11 31.33 101.11 31.26 101.12 31.2 101.12 31.11 Z" fill="#585858" fill-rule="nonzero" id=""/>
        <path d="M105.09 30.51 Q105.09 30.45 105.06 30.43 105.02 30.4 104.96 30.39 104.9 30.37 104.78 30.37 104.67 30.37 104.6 30.39 104.53 30.4 104.5 30.43 104.47 30.45 104.47 30.51 L104.47 30.9 Q104.21 30.62 103.89 30.47 103.57 30.32 103.22 30.32 102.91 30.32 102.65 30.4 102.4 30.48 102.22 30.63 102.04 30.79 101.95 31.01 101.85 31.24 101.85 31.52 101.85 31.85 101.98 32.1 102.12 32.35 102.37 32.51 102.63 32.67 103.0 32.75 103.37 32.83 103.83 32.83 L104.37 32.83 104.37 33.14 Q104.37 33.37 104.33 33.55 104.28 33.72 104.17 33.84 104.06 33.96 103.89 34.01 103.72 34.07 103.47 34.07 103.2 34.07 102.99 34.01 102.77 33.95 102.61 33.87 102.45 33.79 102.35 33.73 102.24 33.67 102.19 33.67 102.15 33.67 102.12 33.68 102.1 33.7 102.08 33.74 102.06 33.77 102.05 33.83 102.04 33.88 102.04 33.95 102.04 34.06 102.06 34.12 102.07 34.18 102.13 34.24 102.19 34.3 102.33 34.37 102.48 34.45 102.67 34.52 102.86 34.58 103.08 34.62 103.31 34.66 103.53 34.66 103.96 34.66 104.26 34.57 104.56 34.47 104.74 34.28 104.93 34.1 105.01 33.82 105.09 33.54 105.09 33.17 L105.09 30.51 Z M104.37 32.31 L103.75 32.31 Q103.46 32.31 103.24 32.26 103.02 32.21 102.87 32.11 102.73 32.01 102.66 31.87 102.59 31.74 102.59 31.56 102.59 31.25 102.79 31.07 102.98 30.88 103.33 30.88 103.62 30.88 103.86 31.03 104.11 31.17 104.37 31.47 L104.37 32.31 Z" fill="#585858" fill-rule="nonzero" id=""/>
        <path d="M109.84 30.51 Q109.84 30.47 109.82 30.45 109.81 30.43 109.77 30.41 109.73 30.39 109.66 30.38 109.59 30.37 109.48 30.37 109.37 30.37 109.3 30.38 109.23 30.39 109.19 30.41 109.15 30.43 109.13 30.45 109.12 30.47 109.12 30.51 L109.12 32.83 Q109.12 33.16 109.06 33.37 109.01 33.58 108.91 33.73 108.81 33.88 108.65 33.96 108.49 34.03 108.28 34.03 108.0 34.03 107.73 33.84 107.46 33.65 107.16 33.27 L107.16 30.51 Q107.16 30.47 107.14 30.45 107.13 30.43 107.09 30.41 107.05 30.39 106.98 30.38 106.91 30.37 106.8 30.37 106.69 30.37 106.62 30.38 106.55 30.39 106.51 30.41 106.47 30.43 106.45 30.45 106.44 30.47 106.44 30.51 L106.44 34.47 Q106.44 34.5 106.45 34.52 106.46 34.55 106.5 34.57 106.54 34.59 106.6 34.59 106.66 34.6 106.76 34.6 106.86 34.6 106.93 34.59 106.99 34.59 107.02 34.57 107.06 34.55 107.07 34.52 107.09 34.5 107.09 34.47 L107.09 33.94 Q107.42 34.32 107.76 34.49 108.09 34.66 108.43 34.66 108.82 34.66 109.09 34.53 109.36 34.39 109.53 34.17 109.7 33.95 109.77 33.65 109.84 33.34 109.84 32.92 L109.84 30.51 Z" fill="#585858" fill-rule="nonzero" id=""/>
        <path d="M112.58 32.76 Q112.58 32.26 112.52 31.78 112.46 31.29 112.34 30.82 112.21 30.34 112.04 29.88 111.86 29.42 111.62 28.98 111.61 28.95 111.58 28.94 111.55 28.92 111.51 28.91 111.47 28.89 111.41 28.89 111.36 28.88 111.28 28.88 111.16 28.88 111.1 28.89 111.04 28.91 111.01 28.93 110.98 28.95 110.98 28.99 110.98 29.03 111.01 29.08 111.41 29.97 111.62 30.9 111.82 31.83 111.82 32.77 111.82 33.71 111.62 34.64 111.41 35.57 111.0 36.46 110.98 36.5 110.98 36.53 110.99 36.57 111.02 36.59 111.06 36.61 111.12 36.62 111.18 36.64 111.28 36.64 111.37 36.64 111.44 36.63 111.5 36.62 111.53 36.61 111.57 36.6 111.59 36.58 111.61 36.57 111.62 36.55 112.07 35.65 112.33 34.7 112.58 33.75 112.58 32.76 Z" fill="#585858" fill-rule="nonzero" id=""/>
        <path d="M137.82 32.93 L157.02 32.93 " fill="none" stroke="#5B9BD4" stroke-width="2.25" stroke-miterlimit="28.65" stroke-linecap="butt" stroke-linejoin="round" id=""/>
        <path d="M162.79 35.76 Q162.79 35.68 162.78 35.62 162.77 35.55 162.75 35.52 162.73 35.48 162.7 35.46 162.67 35.45 162.64 35.45 L160.55 35.45 160.55 33.51 162.52 33.51 Q162.55 33.51 162.58 33.5 162.61 33.48 162.63 33.45 162.66 33.41 162.66 33.35 162.67 33.29 162.67 33.2 162.67 33.12 162.66 33.06 162.66 33.0 162.63 32.96 162.61 32.92 162.58 32.9 162.55 32.88 162.52 32.88 L160.55 32.88 160.55 30.51 Q160.55 30.48 160.54 30.46 160.52 30.43 160.48 30.41 160.43 30.4 160.36 30.38 160.29 30.37 160.18 30.37 160.07 30.37 160.0 30.38 159.92 30.4 159.88 30.41 159.83 30.43 159.82 30.46 159.8 30.48 159.8 30.51 L159.8 35.78 Q159.8 35.95 159.89 36.02 159.98 36.09 160.08 36.09 L162.64 36.09 Q162.67 36.09 162.7 36.07 162.73 36.05 162.75 36.01 162.77 35.97 162.78 35.91 162.79 35.84 162.79 35.76 Z" fill="#585858" fill-rule="nonzero" id=""/>
        <path d="M166.77 30.51 Q166.77 30.45 166.74 30.43 166.7 30.4 166.64 30.39 166.58 30.37 166.46 30.37 166.35 30.37 166.28 30.39 166.21 30.4 166.18 30.43 166.15 30.45 166.15 30.51 L166.15 30.9 Q165.89 30.62 165.57 30.47 165.25 30.32 164.9 30.32 164.58 30.32 164.33 30.4 164.08 30.48 163.9 30.63 163.72 30.79 163.62 31.01 163.52 31.24 163.52 31.52 163.52 31.85 163.66 32.1 163.8 32.35 164.05 32.51 164.31 32.67 164.68 32.75 165.04 32.83 165.51 32.83 L166.05 32.83 166.05 33.14 Q166.05 33.37 166.0 33.55 165.95 33.72 165.85 33.84 165.74 33.96 165.57 34.01 165.4 34.07 165.15 34.07 164.88 34.07 164.66 34.01 164.45 33.95 164.29 33.87 164.13 33.79 164.02 33.73 163.92 33.67 163.86 33.67 163.83 33.67 163.8 33.68 163.77 33.7 163.76 33.74 163.74 33.77 163.73 33.83 163.72 33.88 163.72 33.95 163.72 34.06 163.73 34.12 163.75 34.18 163.81 34.24 163.87 34.3 164.01 34.37 164.16 34.45 164.35 34.52 164.54 34.58 164.76 34.62 164.98 34.66 165.21 34.66 165.64 34.66 165.94 34.57 166.24 34.47 166.42 34.28 166.6 34.1 166.69 33.82 166.77 33.54 166.77 33.17 L166.77 30.51 Z M166.05 32.31 L165.43 32.31 Q165.13 32.31 164.91 32.26 164.69 32.21 164.55 32.11 164.4 32.01 164.34 31.87 164.27 31.74 164.27 31.56 164.27 31.25 164.46 31.07 164.66 30.88 165.01 30.88 165.3 30.88 165.54 31.03 165.78 31.17 166.05 31.47 L166.05 32.31 Z" fill="#585858" fill-rule="nonzero" id=""/>
        <path d="M168.84 30.51 Q168.84 30.47 168.82 30.45 168.8 30.43 168.76 30.41 168.72 30.39 168.65 30.38 168.58 30.37 168.47 30.37 168.37 30.37 168.3 30.38 168.23 30.39 168.18 30.41 168.14 30.43 168.13 30.45 168.11 30.47 168.11 30.51 L168.11 34.47 Q168.11 34.5 168.13 34.52 168.14 34.55 168.18 34.57 168.23 34.58 168.3 34.59 168.37 34.6 168.47 34.6 168.58 34.6 168.65 34.59 168.72 34.58 168.76 34.57 168.8 34.55 168.82 34.52 168.84 34.5 168.84 34.47 L168.84 30.51 Z M168.92 35.8 Q168.92 35.55 168.82 35.45 168.73 35.36 168.47 35.36 168.21 35.36 168.12 35.45 168.02 35.54 168.02 35.79 168.02 36.05 168.12 36.14 168.22 36.23 168.48 36.23 168.73 36.23 168.83 36.14 168.92 36.05 168.92 35.8 Z" fill="#585858" fill-rule="nonzero" id=""/>
        <path d="M172.76 31.59 Q172.76 31.28 172.64 31.05 172.53 30.81 172.32 30.65 172.12 30.48 171.83 30.4 171.55 30.32 171.2 30.32 170.99 30.32 170.8 30.35 170.61 30.38 170.46 30.43 170.31 30.48 170.2 30.54 170.1 30.59 170.05 30.64 170.0 30.68 169.98 30.76 169.96 30.84 169.96 30.98 169.96 31.06 169.96 31.12 169.97 31.17 169.99 31.21 170.0 31.24 170.02 31.26 170.05 31.27 170.08 31.27 170.13 31.27 170.22 31.22 170.32 31.16 170.45 31.09 170.59 31.02 170.78 30.96 170.97 30.9 171.22 30.9 171.4 30.9 171.55 30.94 171.7 30.98 171.81 31.05 171.92 31.13 171.98 31.25 172.04 31.37 172.04 31.53 172.04 31.7 171.95 31.81 171.87 31.93 171.73 32.01 171.59 32.1 171.41 32.17 171.23 32.24 171.05 32.31 170.86 32.39 170.68 32.48 170.51 32.58 170.36 32.71 170.22 32.85 170.14 33.04 170.05 33.23 170.05 33.49 170.05 33.72 170.14 33.94 170.23 34.15 170.41 34.31 170.59 34.47 170.86 34.57 171.13 34.66 171.49 34.66 171.65 34.66 171.81 34.64 171.97 34.61 172.1 34.57 172.22 34.53 172.31 34.48 172.4 34.44 172.45 34.4 172.5 34.37 172.51 34.34 172.53 34.32 172.53 34.28 172.54 34.25 172.55 34.2 172.55 34.15 172.55 34.08 172.55 34.01 172.55 33.95 172.54 33.9 172.52 33.86 172.51 33.83 172.49 33.81 172.47 33.8 172.44 33.8 172.4 33.8 172.32 33.85 172.25 33.89 172.13 33.95 172.01 34.0 171.85 34.05 171.69 34.1 171.49 34.1 171.3 34.1 171.16 34.06 171.02 34.02 170.93 33.94 170.84 33.86 170.79 33.76 170.75 33.65 170.75 33.53 170.75 33.36 170.83 33.24 170.92 33.12 171.06 33.04 171.2 32.95 171.38 32.88 171.56 32.81 171.75 32.73 171.94 32.66 172.12 32.57 172.3 32.47 172.44 32.34 172.58 32.21 172.67 32.03 172.76 31.84 172.76 31.59 Z" fill="#585858" fill-rule="nonzero" id=""/>
        <path d="M176.24 31.59 Q176.24 31.28 176.12 31.05 176.01 30.81 175.81 30.65 175.6 30.48 175.31 30.4 175.03 30.32 174.68 30.32 174.47 30.32 174.28 30.35 174.09 30.38 173.94 30.43 173.79 30.48 173.68 30.54 173.58 30.59 173.53 30.64 173.48 30.68 173.46 30.76 173.44 30.84 173.44 30.98 173.44 31.06 173.45 31.12 173.45 31.17 173.47 31.21 173.48 31.24 173.5 31.26 173.53 31.27 173.56 31.27 173.61 31.27 173.7 31.22 173.8 31.16 173.94 31.09 174.07 31.02 174.26 30.96 174.45 30.9 174.7 30.9 174.88 30.9 175.03 30.94 175.18 30.98 175.29 31.05 175.4 31.13 175.46 31.25 175.52 31.37 175.52 31.53 175.52 31.7 175.43 31.81 175.35 31.93 175.21 32.01 175.07 32.1 174.89 32.17 174.72 32.24 174.53 32.31 174.34 32.39 174.16 32.48 173.99 32.58 173.85 32.71 173.7 32.85 173.62 33.04 173.53 33.23 173.53 33.49 173.53 33.72 173.62 33.94 173.71 34.15 173.89 34.31 174.07 34.47 174.34 34.57 174.61 34.66 174.97 34.66 175.13 34.66 175.29 34.64 175.45 34.61 175.58 34.57 175.7 34.53 175.79 34.48 175.88 34.44 175.93 34.4 175.98 34.37 175.99 34.34 176.01 34.32 176.01 34.28 176.02 34.25 176.03 34.2 176.03 34.15 176.03 34.08 176.03 34.01 176.03 33.95 176.02 33.9 176.0 33.86 175.99 33.83 175.97 33.81 175.95 33.8 175.92 33.8 175.88 33.8 175.81 33.85 175.73 33.89 175.61 33.95 175.49 34.0 175.33 34.05 175.17 34.1 174.97 34.1 174.78 34.1 174.64 34.06 174.5 34.02 174.41 33.94 174.32 33.86 174.27 33.76 174.23 33.65 174.23 33.53 174.23 33.36 174.32 33.24 174.4 33.12 174.54 33.04 174.68 32.95 174.86 32.88 175.04 32.81 175.23 32.73 175.42 32.66 175.6 32.57 175.78 32.47 175.92 32.34 176.06 32.21 176.15 32.03 176.24 31.84 176.24 31.59 Z" fill="#585858" fill-rule="nonzero" id=""/>
        <path d="M180.78 36.46 Q180.36 35.57 180.16 34.64 179.95 33.71 179.95 32.77 179.95 31.83 180.16 30.9 180.37 29.97 180.77 29.08 180.79 29.03 180.79 28.99 180.8 28.95 180.76 28.93 180.73 28.91 180.67 28.89 180.61 28.88 180.5 28.88 180.42 28.88 180.36 28.89 180.3 28.89 180.26 28.91 180.22 28.92 180.19 28.94 180.17 28.95 180.15 28.98 179.92 29.42 179.74 29.88 179.56 30.34 179.43 30.82 179.31 31.29 179.25 31.78 179.19 32.26 179.19 32.76 179.19 33.26 179.26 33.74 179.32 34.22 179.45 34.7 179.57 35.18 179.75 35.64 179.93 36.1 180.16 36.55 180.16 36.57 180.18 36.58 180.2 36.6 180.24 36.61 180.27 36.62 180.33 36.63 180.4 36.64 180.49 36.64 180.59 36.64 180.66 36.62 180.72 36.61 180.75 36.59 180.79 36.57 180.79 36.53 180.8 36.5 180.78 36.46 Z" fill="#585858" fill-rule="nonzero" id=""/>
        <path d="M182.87 30.51 Q182.87 30.48 182.86 30.45 182.84 30.43 182.8 30.41 182.75 30.4 182.68 30.38 182.61 30.37 182.5 30.37 182.39 30.37 182.32 30.38 182.24 30.4 182.2 30.41 182.15 30.43 182.14 30.45 182.12 30.48 182.12 30.51 L182.12 35.97 Q182.12 36.01 182.14 36.03 182.16 36.06 182.2 36.08 182.25 36.09 182.32 36.1 182.4 36.11 182.5 36.11 182.61 36.11 182.68 36.1 182.75 36.09 182.8 36.08 182.84 36.06 182.86 36.03 182.87 36.01 182.87 35.97 L182.87 30.51 Z" fill="#585858" fill-rule="nonzero" id=""/>
        <path d="M186.7 30.53 Q186.68 30.48 186.65 30.45 186.62 30.42 186.56 30.4 186.51 30.39 186.42 30.38 186.34 30.37 186.21 30.37 186.11 30.37 186.04 30.38 185.97 30.38 185.91 30.39 185.86 30.4 185.82 30.41 185.79 30.42 185.76 30.44 185.73 30.45 185.72 30.48 185.7 30.5 185.69 30.54 L183.83 35.82 Q183.8 35.92 183.79 35.97 183.79 36.03 183.83 36.06 183.87 36.1 183.96 36.1 184.05 36.11 184.2 36.11 184.32 36.11 184.39 36.11 184.46 36.1 184.5 36.08 184.54 36.06 184.56 36.04 184.58 36.01 184.6 35.96 L186.23 31.18 186.24 31.18 187.82 35.95 Q187.84 36.0 187.85 36.03 187.87 36.06 187.91 36.08 187.96 36.1 188.04 36.11 188.12 36.11 188.25 36.11 188.38 36.11 188.46 36.1 188.54 36.09 188.57 36.06 188.6 36.03 188.59 35.97 188.59 35.91 188.55 35.81 L186.7 30.53 Z" fill="#585858" fill-rule="nonzero" id=""/>
        <path d="M192.43 35.76 Q192.43 35.68 192.42 35.62 192.41 35.55 192.39 35.52 192.37 35.48 192.34 35.46 192.31 35.45 192.28 35.45 L190.19 35.45 190.19 33.51 192.16 33.51 Q192.19 33.51 192.22 33.5 192.25 33.48 192.27 33.45 192.3 33.41 192.3 33.35 192.31 33.29 192.31 33.2 192.31 33.12 192.3 33.06 192.3 33.0 192.27 32.96 192.25 32.92 192.22 32.9 192.19 32.88 192.16 32.88 L190.19 32.88 190.19 30.51 Q190.19 30.48 190.18 30.46 190.16 30.43 190.12 30.41 190.07 30.4 190.0 30.38 189.93 30.37 189.82 30.37 189.71 30.37 189.64 30.38 189.56 30.4 189.52 30.41 189.47 30.43 189.46 30.46 189.44 30.48 189.44 30.51 L189.44 35.78 Q189.44 35.95 189.53 36.02 189.62 36.09 189.72 36.09 L192.28 36.09 Q192.31 36.09 192.34 36.07 192.37 36.05 192.39 36.01 192.41 35.97 192.42 35.91 192.43 35.84 192.43 35.76 Z" fill="#585858" fill-rule="nonzero" id=""/>
        <path d="M197.13 34.42 Q197.13 33.99 196.99 33.65 196.85 33.31 196.59 33.07 196.33 32.83 195.95 32.69 195.57 32.56 195.04 32.56 L194.39 32.56 194.39 30.51 Q194.39 30.48 194.38 30.45 194.36 30.43 194.31 30.41 194.27 30.4 194.2 30.38 194.13 30.37 194.02 30.37 193.91 30.37 193.83 30.38 193.76 30.4 193.72 30.41 193.67 30.43 193.66 30.45 193.64 30.48 193.64 30.51 L193.64 35.76 Q193.64 35.94 193.73 36.01 193.82 36.09 193.94 36.09 L195.16 36.09 Q195.34 36.09 195.51 36.07 195.68 36.06 195.91 36.01 196.14 35.95 196.38 35.82 196.62 35.68 196.79 35.48 196.95 35.27 197.04 35.01 197.13 34.74 197.13 34.42 Z M196.34 34.36 Q196.34 34.71 196.21 34.94 196.08 35.17 195.89 35.29 195.7 35.4 195.49 35.43 195.29 35.46 195.09 35.46 L194.39 35.46 194.39 33.18 195.08 33.18 Q195.42 33.18 195.65 33.27 195.87 33.36 196.03 33.51 196.18 33.67 196.26 33.89 196.34 34.1 196.34 34.36 Z" fill="#585858" fill-rule="nonzero" id=""/>
        <path d="M203.78 29.9 Q203.78 29.8 203.77 29.73 203.76 29.66 203.74 29.62 203.72 29.59 203.69 29.57 203.66 29.56 203.64 29.56 203.55 29.56 203.35 29.63 203.16 29.71 202.9 29.84 202.65 29.98 202.36 30.18 202.07 30.38 201.8 30.64 201.58 30.51 201.25 30.41 200.92 30.32 200.49 30.32 199.84 30.32 199.38 30.51 198.91 30.69 198.6 31.06 198.3 31.42 198.15 31.97 198.0 32.51 198.0 33.21 198.0 33.89 198.16 34.44 198.32 34.98 198.65 35.37 198.97 35.75 199.46 35.96 199.95 36.17 200.6 36.17 201.21 36.17 201.67 35.98 202.14 35.79 202.45 35.43 202.77 35.07 202.92 34.54 203.08 34.0 203.08 33.31 203.08 32.96 203.04 32.63 203.0 32.31 202.91 32.02 202.82 31.73 202.68 31.48 202.55 31.24 202.36 31.04 202.68 30.77 202.92 30.63 203.17 30.48 203.32 30.4 203.48 30.33 203.57 30.3 203.66 30.26 203.7 30.22 203.75 30.18 203.76 30.1 203.78 30.03 203.78 29.9 Z M202.29 33.26 Q202.29 33.74 202.2 34.16 202.12 34.57 201.92 34.88 201.72 35.18 201.38 35.35 201.05 35.52 200.56 35.52 200.06 35.52 199.73 35.34 199.4 35.16 199.19 34.85 198.98 34.54 198.89 34.13 198.8 33.72 198.8 33.27 198.8 32.76 198.88 32.34 198.96 31.93 199.16 31.62 199.36 31.31 199.69 31.14 200.02 30.97 200.53 30.97 201.02 30.97 201.36 31.16 201.7 31.34 201.9 31.65 202.11 31.97 202.2 32.38 202.29 32.8 202.29 33.26 Z" fill="#585858" fill-rule="nonzero" id=""/>
        <path d="M205.71 32.76 Q205.71 32.26 205.64 31.78 205.58 31.29 205.46 30.82 205.34 30.34 205.16 29.88 204.98 29.42 204.74 28.98 204.73 28.95 204.7 28.94 204.68 28.92 204.64 28.91 204.59 28.89 204.54 28.89 204.48 28.88 204.4 28.88 204.29 28.88 204.22 28.89 204.16 28.91 204.13 28.93 204.1 28.95 204.1 28.99 204.11 29.03 204.13 29.08 204.53 29.97 204.74 30.9 204.95 31.83 204.95 32.77 204.95 33.71 204.74 34.64 204.53 35.57 204.12 36.46 204.1 36.5 204.11 36.53 204.11 36.57 204.15 36.59 204.18 36.61 204.24 36.62 204.3 36.64 204.41 36.64 204.5 36.64 204.56 36.63 204.62 36.62 204.66 36.61 204.7 36.6 204.71 36.58 204.73 36.57 204.74 36.55 205.19 35.65 205.45 34.7 205.71 33.75 205.71 32.76 Z" fill="#585858" fill-rule="nonzero" id=""/>
        <path d="M230.89 32.93 L250.09 32.93 " fill="none" stroke="#EC7C30" stroke-width="2.25" stroke-miterlimit="28.65" stroke-linecap="butt" stroke-linejoin="round" id=""/>
        <path d="M256.97 30.51 Q256.97 30.48 256.95 30.45 256.93 30.43 256.89 30.41 256.84 30.4 256.77 30.38 256.7 30.37 256.59 30.37 256.48 30.37 256.41 30.38 256.34 30.4 256.29 30.41 256.25 30.43 256.23 30.45 256.22 30.48 256.22 30.51 L256.22 33.04 253.63 33.04 253.63 30.51 Q253.63 30.48 253.61 30.45 253.59 30.43 253.55 30.41 253.5 30.4 253.43 30.38 253.36 30.37 253.25 30.37 253.14 30.37 253.07 30.38 252.99 30.4 252.95 30.41 252.91 30.43 252.89 30.45 252.87 30.48 252.87 30.51 L252.87 35.97 Q252.87 36.01 252.89 36.03 252.91 36.06 252.95 36.08 252.99 36.09 253.07 36.1 253.14 36.11 253.25 36.11 253.36 36.11 253.43 36.1 253.5 36.09 253.55 36.08 253.59 36.06 253.61 36.03 253.63 36.01 253.63 35.97 L253.63 33.7 256.22 33.7 256.22 35.97 Q256.22 36.01 256.23 36.03 256.25 36.06 256.29 36.08 256.34 36.09 256.41 36.1 256.48 36.11 256.59 36.11 256.7 36.11 256.77 36.1 256.84 36.09 256.89 36.08 256.93 36.06 256.95 36.03 256.97 36.01 256.97 35.97 L256.97 30.51 Z" fill="#585858" fill-rule="nonzero" id=""/>
        <path d="M262.81 30.71 Q262.81 30.62 262.78 30.56 262.75 30.5 262.71 30.46 262.66 30.42 262.6 30.4 262.55 30.39 262.49 30.39 L262.25 30.39 Q262.13 30.39 262.05 30.41 261.96 30.44 261.88 30.5 261.81 30.56 261.73 30.67 261.65 30.78 261.56 30.95 L259.77 34.19 Q259.63 34.44 259.49 34.71 259.34 34.99 259.22 35.25 L259.21 35.25 Q259.22 34.93 259.22 34.6 259.23 34.27 259.23 33.95 L259.23 30.51 Q259.23 30.48 259.21 30.46 259.19 30.43 259.15 30.41 259.11 30.4 259.04 30.38 258.97 30.37 258.87 30.37 258.76 30.37 258.69 30.38 258.63 30.4 258.59 30.41 258.55 30.43 258.53 30.46 258.51 30.48 258.51 30.51 L258.51 35.76 Q258.51 35.94 258.61 36.01 258.71 36.09 258.82 36.09 L259.18 36.09 Q259.31 36.09 259.39 36.06 259.48 36.04 259.55 35.99 259.61 35.94 259.68 35.85 259.74 35.76 259.82 35.63 L261.2 33.13 Q261.32 32.9 261.44 32.68 261.56 32.47 261.67 32.25 261.78 32.04 261.89 31.84 262.0 31.63 262.1 31.43 L262.11 31.43 Q262.1 31.78 262.1 32.15 262.09 32.53 262.09 32.87 L262.09 35.96 Q262.09 35.99 262.11 36.02 262.13 36.04 262.17 36.06 262.21 36.08 262.28 36.09 262.35 36.1 262.46 36.1 262.55 36.1 262.63 36.09 262.7 36.08 262.73 36.06 262.77 36.04 262.79 36.02 262.81 35.99 262.81 35.96 L262.81 30.71 Z" fill="#585858" fill-rule="nonzero" id=""/>
        <path d="M267.33 32.0 Q267.33 31.6 267.18 31.28 267.03 30.97 266.77 30.75 266.51 30.54 266.15 30.43 265.8 30.32 265.39 30.32 265.11 30.32 264.86 30.36 264.62 30.41 264.43 30.48 264.24 30.55 264.11 30.63 263.98 30.7 263.93 30.76 263.88 30.81 263.85 30.89 263.83 30.97 263.83 31.11 263.83 31.2 263.84 31.27 263.85 31.33 263.86 31.37 263.88 31.41 263.91 31.43 263.93 31.44 263.97 31.44 264.03 31.44 264.14 31.37 264.25 31.29 264.43 31.2 264.61 31.12 264.85 31.04 265.1 30.96 265.43 30.96 265.67 30.96 265.88 31.03 266.08 31.09 266.23 31.22 266.38 31.34 266.46 31.51 266.53 31.69 266.53 31.91 266.53 32.15 266.43 32.32 266.32 32.5 266.14 32.63 265.95 32.76 265.72 32.86 265.49 32.97 265.25 33.08 265.01 33.2 264.78 33.33 264.55 33.47 264.37 33.65 264.19 33.84 264.08 34.08 263.97 34.33 263.97 34.68 263.97 35.04 264.1 35.32 264.23 35.59 264.46 35.78 264.69 35.97 265.01 36.07 265.33 36.17 265.7 36.17 265.88 36.17 266.08 36.14 266.27 36.1 266.44 36.05 266.61 35.99 266.74 35.93 266.87 35.86 266.91 35.82 266.95 35.77 266.97 35.75 266.98 35.73 266.99 35.69 267.0 35.65 267.0 35.6 267.01 35.55 267.01 35.46 267.01 35.38 267.0 35.32 266.99 35.26 266.98 35.22 266.97 35.18 266.94 35.16 266.92 35.14 266.89 35.14 266.84 35.14 266.73 35.2 266.63 35.26 266.48 35.34 266.33 35.41 266.13 35.48 265.92 35.54 265.67 35.54 265.43 35.54 265.26 35.48 265.08 35.41 264.97 35.31 264.85 35.2 264.79 35.06 264.74 34.91 264.74 34.75 264.74 34.51 264.85 34.34 264.96 34.17 265.14 34.04 265.32 33.91 265.55 33.8 265.79 33.69 266.03 33.58 266.27 33.46 266.5 33.33 266.74 33.2 266.92 33.01 267.1 32.83 267.21 32.58 267.33 32.33 267.33 32.0 Z" fill="#585858" fill-rule="nonzero" id=""/>
        <path d="M273.92 30.57 Q273.9 30.51 273.86 30.47 273.83 30.43 273.77 30.41 273.71 30.39 273.61 30.38 273.52 30.37 273.39 30.37 273.26 30.37 273.16 30.38 273.07 30.39 273.01 30.41 272.94 30.43 272.91 30.47 272.88 30.51 272.87 30.57 L271.67 34.86 271.67 34.86 270.57 30.57 Q270.55 30.51 270.52 30.47 270.49 30.43 270.44 30.41 270.38 30.39 270.29 30.38 270.2 30.37 270.06 30.37 269.91 30.37 269.82 30.38 269.72 30.39 269.66 30.41 269.6 30.43 269.56 30.47 269.53 30.51 269.52 30.57 L268.01 35.82 Q267.99 35.92 267.99 35.98 267.98 36.03 268.02 36.06 268.06 36.1 268.14 36.1 268.23 36.11 268.37 36.11 268.5 36.11 268.58 36.11 268.66 36.1 268.7 36.08 268.74 36.06 268.76 36.03 268.77 36.0 268.78 35.95 L270.06 31.19 270.07 31.19 271.28 35.95 Q271.29 35.99 271.31 36.03 271.33 36.06 271.38 36.08 271.42 36.1 271.5 36.1 271.58 36.11 271.71 36.11 271.84 36.11 271.91 36.1 271.98 36.1 272.03 36.08 272.07 36.06 272.09 36.03 272.11 35.99 272.12 35.95 L273.43 31.19 273.44 31.19 274.69 35.95 Q274.7 35.99 274.72 36.03 274.73 36.06 274.77 36.08 274.81 36.1 274.89 36.1 274.97 36.11 275.09 36.11 275.23 36.11 275.3 36.1 275.38 36.09 275.41 36.06 275.45 36.03 275.45 35.97 275.45 35.92 275.42 35.81 L273.92 30.57 Z" fill="#585858" fill-rule="nonzero" id=""/>
        <path d="M279.85 36.46 Q279.44 35.57 279.23 34.64 279.03 33.71 279.03 32.77 279.03 31.83 279.24 30.9 279.44 29.97 279.84 29.08 279.87 29.03 279.87 28.99 279.87 28.95 279.84 28.93 279.81 28.91 279.75 28.89 279.68 28.88 279.57 28.88 279.49 28.88 279.44 28.89 279.38 28.89 279.34 28.91 279.3 28.92 279.27 28.94 279.24 28.95 279.23 28.98 278.99 29.42 278.81 29.88 278.63 30.34 278.51 30.82 278.39 31.29 278.32 31.78 278.26 32.26 278.26 32.76 278.26 33.26 278.33 33.74 278.4 34.22 278.52 34.7 278.65 35.18 278.83 35.64 279.01 36.1 279.23 36.55 279.24 36.57 279.26 36.58 279.28 36.6 279.31 36.61 279.35 36.62 279.41 36.63 279.47 36.64 279.57 36.64 279.67 36.64 279.73 36.62 279.79 36.61 279.83 36.59 279.86 36.57 279.87 36.53 279.87 36.5 279.85 36.46 Z" fill="#585858" fill-rule="nonzero" id=""/>
        <path d="M285.47 35.31 Q285.47 35.23 285.46 35.17 285.45 35.1 285.43 35.06 285.41 35.02 285.39 35.0 285.36 34.98 285.33 34.98 285.28 34.98 285.15 35.07 285.03 35.15 284.82 35.25 284.62 35.35 284.33 35.44 284.04 35.52 283.65 35.52 283.18 35.52 282.8 35.35 282.43 35.18 282.17 34.87 281.91 34.57 281.77 34.15 281.63 33.74 281.63 33.25 281.63 32.7 281.79 32.28 281.94 31.86 282.21 31.57 282.47 31.28 282.84 31.13 283.22 30.98 283.66 30.98 283.92 30.98 284.19 31.04 284.46 31.11 284.7 31.24 L284.7 32.89 283.38 32.89 Q283.3 32.89 283.27 32.97 283.23 33.04 283.23 33.2 283.23 33.28 283.24 33.34 283.25 33.4 283.27 33.44 283.29 33.48 283.31 33.49 283.34 33.51 283.38 33.51 L285.18 33.51 Q285.23 33.51 285.28 33.49 285.33 33.48 285.37 33.44 285.41 33.41 285.43 33.34 285.45 33.28 285.45 33.2 L285.45 31.04 Q285.45 30.92 285.41 30.84 285.37 30.76 285.25 30.69 285.12 30.63 284.92 30.55 284.71 30.48 284.5 30.43 284.28 30.37 284.06 30.35 283.84 30.32 283.63 30.32 282.97 30.32 282.45 30.53 281.93 30.73 281.57 31.11 281.22 31.49 281.03 32.01 280.84 32.54 280.84 33.19 280.84 33.87 281.04 34.42 281.25 34.97 281.62 35.35 281.99 35.74 282.51 35.95 283.03 36.17 283.66 36.17 283.99 36.17 284.28 36.11 284.56 36.05 284.78 35.97 285.0 35.9 285.16 35.81 285.31 35.72 285.36 35.66 285.42 35.6 285.44 35.53 285.47 35.45 285.47 35.31 Z" fill="#585858" fill-rule="nonzero" id=""/>
        <path d="M289.06 34.21 Q289.06 34.11 289.06 34.04 289.05 33.98 289.04 33.94 289.03 33.9 289.01 33.88 288.99 33.86 288.95 33.86 288.92 33.86 288.87 33.88 288.82 33.9 288.75 33.92 288.69 33.94 288.61 33.96 288.53 33.98 288.44 33.98 288.33 33.98 288.22 33.93 288.12 33.89 288.0 33.79 287.89 33.69 287.76 33.52 287.63 33.35 287.48 33.11 L287.48 30.51 Q287.48 30.47 287.46 30.45 287.44 30.43 287.4 30.41 287.36 30.39 287.29 30.38 287.22 30.37 287.11 30.37 287.01 30.37 286.94 30.38 286.87 30.39 286.82 30.41 286.78 30.43 286.77 30.45 286.75 30.47 286.75 30.51 L286.75 34.47 Q286.75 34.5 286.76 34.52 286.78 34.55 286.82 34.57 286.86 34.59 286.92 34.59 286.98 34.6 287.08 34.6 287.18 34.6 287.24 34.59 287.3 34.59 287.34 34.57 287.38 34.55 287.39 34.52 287.41 34.5 287.41 34.47 L287.41 33.89 Q287.57 34.13 287.71 34.28 287.85 34.43 287.98 34.51 288.11 34.6 288.23 34.63 288.36 34.66 288.49 34.66 288.54 34.66 288.62 34.66 288.69 34.65 288.77 34.63 288.85 34.61 288.91 34.59 288.97 34.57 289.0 34.55 289.03 34.53 289.04 34.51 289.05 34.49 289.05 34.46 289.06 34.43 289.06 34.37 289.06 34.31 289.06 34.21 Z" fill="#585858" fill-rule="nonzero" id=""/>
        <path d="M292.97 30.51 Q292.97 30.45 292.94 30.43 292.9 30.4 292.84 30.39 292.78 30.37 292.66 30.37 292.54 30.37 292.48 30.39 292.41 30.4 292.38 30.43 292.35 30.45 292.35 30.51 L292.35 30.9 Q292.09 30.62 291.77 30.47 291.45 30.32 291.09 30.32 290.78 30.32 290.53 30.4 290.28 30.48 290.1 30.63 289.92 30.79 289.82 31.01 289.72 31.24 289.72 31.52 289.72 31.85 289.86 32.1 290.0 32.35 290.25 32.51 290.51 32.67 290.87 32.75 291.24 32.83 291.71 32.83 L292.25 32.83 292.25 33.14 Q292.25 33.37 292.2 33.55 292.15 33.72 292.05 33.84 291.94 33.96 291.77 34.01 291.6 34.07 291.34 34.07 291.08 34.07 290.86 34.01 290.65 33.95 290.49 33.87 290.33 33.79 290.22 33.73 290.11 33.67 290.06 33.67 290.03 33.67 290.0 33.68 289.97 33.7 289.95 33.74 289.93 33.77 289.93 33.83 289.92 33.88 289.92 33.95 289.92 34.06 289.93 34.12 289.95 34.18 290.01 34.24 290.07 34.3 290.21 34.37 290.36 34.45 290.54 34.52 290.73 34.58 290.96 34.62 291.18 34.66 291.41 34.66 291.84 34.66 292.14 34.57 292.43 34.47 292.62 34.28 292.8 34.1 292.89 33.82 292.97 33.54 292.97 33.17 L292.97 30.51 Z M292.25 32.31 L291.63 32.31 Q291.33 32.31 291.11 32.26 290.89 32.21 290.75 32.11 290.6 32.01 290.53 31.87 290.47 31.74 290.47 31.56 290.47 31.25 290.66 31.07 290.86 30.88 291.21 30.88 291.49 30.88 291.74 31.03 291.98 31.17 292.25 31.47 L292.25 32.31 Z" fill="#585858" fill-rule="nonzero" id=""/>
        <path d="M297.83 32.55 Q297.83 32.03 297.72 31.62 297.61 31.2 297.39 30.92 297.17 30.63 296.85 30.47 296.53 30.32 296.12 30.32 295.94 30.32 295.79 30.35 295.64 30.39 295.5 30.46 295.36 30.54 295.21 30.65 295.07 30.76 294.92 30.92 L294.92 28.94 Q294.92 28.91 294.9 28.88 294.88 28.85 294.84 28.84 294.8 28.82 294.73 28.81 294.66 28.8 294.55 28.8 294.45 28.8 294.38 28.81 294.3 28.82 294.26 28.84 294.22 28.85 294.21 28.88 294.19 28.91 294.19 28.94 L294.19 34.47 Q294.19 34.5 294.2 34.53 294.22 34.55 294.26 34.57 294.3 34.59 294.36 34.59 294.42 34.6 294.51 34.6 294.6 34.6 294.66 34.59 294.72 34.59 294.76 34.57 294.8 34.55 294.81 34.53 294.83 34.5 294.83 34.47 L294.83 33.93 Q295.01 34.12 295.18 34.25 295.34 34.39 295.51 34.48 295.68 34.57 295.86 34.62 296.04 34.66 296.23 34.66 296.66 34.66 296.97 34.5 297.27 34.33 297.46 34.04 297.65 33.75 297.74 33.36 297.83 32.98 297.83 32.55 Z M297.06 32.47 Q297.06 32.77 297.02 33.05 296.97 33.34 296.86 33.56 296.75 33.78 296.56 33.91 296.37 34.04 296.09 34.04 295.95 34.04 295.81 34.0 295.68 33.96 295.54 33.87 295.39 33.78 295.24 33.63 295.09 33.48 294.92 33.27 L294.92 31.69 Q295.21 31.33 295.48 31.13 295.75 30.94 296.05 30.94 296.32 30.94 296.51 31.07 296.71 31.2 296.83 31.42 296.95 31.64 297.01 31.92 297.06 32.19 297.06 32.47 Z" fill="#585858" fill-rule="nonzero" id=""/>
        <path d="M302.4 30.51 Q302.4 30.47 302.38 30.45 302.36 30.43 302.32 30.41 302.28 30.39 302.21 30.38 302.14 30.37 302.04 30.37 301.93 30.37 301.86 30.38 301.79 30.39 301.75 30.41 301.71 30.43 301.69 30.45 301.67 30.47 301.67 30.51 L301.67 32.83 Q301.67 33.16 301.62 33.37 301.57 33.58 301.47 33.73 301.36 33.88 301.2 33.96 301.04 34.03 300.83 34.03 300.56 34.03 300.29 33.84 300.02 33.65 299.72 33.27 L299.72 30.51 Q299.72 30.47 299.7 30.45 299.68 30.43 299.64 30.41 299.6 30.39 299.53 30.38 299.46 30.37 299.35 30.37 299.25 30.37 299.18 30.38 299.11 30.39 299.06 30.41 299.02 30.43 299.01 30.45 298.99 30.47 298.99 30.51 L298.99 36.38 Q298.99 36.42 299.01 36.44 299.02 36.47 299.06 36.49 299.11 36.5 299.18 36.51 299.25 36.52 299.35 36.52 299.46 36.52 299.53 36.51 299.6 36.5 299.64 36.49 299.68 36.47 299.7 36.44 299.72 36.42 299.72 36.38 L299.72 34.01 Q300.03 34.34 300.34 34.5 300.66 34.66 300.98 34.66 301.38 34.66 301.65 34.53 301.92 34.39 302.09 34.17 302.25 33.95 302.32 33.65 302.4 33.34 302.4 32.92 L302.4 30.51 Z" fill="#585858" fill-rule="nonzero" id=""/>
        <path d="M305.14 32.76 Q305.14 32.26 305.08 31.78 305.02 31.29 304.89 30.82 304.77 30.34 304.59 29.88 304.41 29.42 304.18 28.98 304.16 28.95 304.14 28.94 304.11 28.92 304.07 28.91 304.03 28.89 303.97 28.89 303.91 28.88 303.83 28.88 303.72 28.88 303.66 28.89 303.59 28.91 303.56 28.93 303.54 28.95 303.54 28.99 303.54 29.03 303.56 29.08 303.97 29.97 304.17 30.9 304.38 31.83 304.38 32.77 304.38 33.71 304.17 34.64 303.97 35.57 303.55 36.46 303.54 36.5 303.54 36.53 303.54 36.57 303.58 36.59 303.61 36.61 303.68 36.62 303.74 36.64 303.84 36.64 303.93 36.64 303.99 36.63 304.05 36.62 304.09 36.61 304.13 36.6 304.15 36.58 304.16 36.57 304.17 36.55 304.62 35.65 304.88 34.7 305.14 33.75 305.14 32.76 Z" fill="#585858" fill-rule="nonzero" id=""/>
        <path d="M330.34 32.93 L349.54 32.93 " fill="none" stroke="#6FAC46" stroke-width="2.25" stroke-miterlimit="28.65" stroke-linecap="butt" stroke-linejoin="round" id=""/>
        <path d="M356.7 33.33 Q356.7 32.59 356.51 32.04 356.32 31.49 355.96 31.12 355.59 30.76 355.07 30.58 354.54 30.4 353.81 30.4 L352.61 30.4 Q352.5 30.4 352.41 30.47 352.32 30.54 352.32 30.71 L352.32 35.78 Q352.32 35.95 352.41 36.02 352.5 36.09 352.61 36.09 L353.89 36.09 Q354.63 36.09 355.14 35.9 355.65 35.7 356.0 35.35 356.34 34.99 356.52 34.48 356.7 33.97 356.7 33.33 Z M355.9 33.3 Q355.9 33.76 355.79 34.16 355.67 34.55 355.43 34.84 355.18 35.13 354.81 35.3 354.44 35.46 353.85 35.46 L353.08 35.46 353.08 31.03 353.86 31.03 Q354.4 31.03 354.78 31.17 355.15 31.31 355.4 31.59 355.65 31.87 355.78 32.29 355.9 32.72 355.9 33.3 Z" fill="#585858" fill-rule="nonzero" id=""/>
        <path d="M361.01 30.71 Q361.01 30.63 361.0 30.57 360.99 30.51 360.97 30.47 360.95 30.44 360.92 30.42 360.89 30.4 360.85 30.4 L358.12 30.4 Q358.02 30.4 357.93 30.47 357.84 30.54 357.84 30.71 L357.84 35.78 Q357.84 35.95 357.93 36.02 358.02 36.09 358.12 36.09 L360.82 36.09 Q360.86 36.09 360.89 36.07 360.92 36.05 360.93 36.01 360.95 35.97 360.96 35.91 360.97 35.85 360.97 35.77 360.97 35.69 360.96 35.63 360.95 35.57 360.93 35.53 360.92 35.49 360.89 35.48 360.86 35.46 360.82 35.46 L358.6 35.46 358.6 33.67 360.51 33.67 Q360.54 33.67 360.57 33.65 360.6 33.63 360.62 33.6 360.64 33.56 360.65 33.5 360.66 33.44 360.66 33.36 360.66 33.28 360.65 33.22 360.64 33.16 360.62 33.13 360.6 33.09 360.57 33.08 360.54 33.06 360.51 33.06 L358.6 33.06 358.6 31.03 360.85 31.03 Q360.89 31.03 360.92 31.01 360.95 30.99 360.97 30.96 360.99 30.92 361.0 30.86 361.01 30.8 361.01 30.71 Z" fill="#585858" fill-rule="nonzero" id=""/>
        <path d="M366.56 35.31 Q366.56 35.23 366.55 35.17 366.54 35.1 366.52 35.06 366.5 35.02 366.48 35.0 366.45 34.98 366.42 34.98 366.37 34.98 366.24 35.07 366.12 35.15 365.91 35.25 365.71 35.35 365.42 35.44 365.13 35.52 364.74 35.52 364.27 35.52 363.89 35.35 363.52 35.18 363.26 34.87 363.0 34.57 362.86 34.15 362.72 33.74 362.72 33.25 362.72 32.7 362.88 32.28 363.03 31.86 363.29 31.57 363.56 31.28 363.93 31.13 364.31 30.98 364.75 30.98 365.01 30.98 365.28 31.04 365.55 31.11 365.79 31.24 L365.79 32.89 364.47 32.89 Q364.39 32.89 364.36 32.97 364.32 33.04 364.32 33.2 364.32 33.28 364.33 33.34 364.34 33.4 364.36 33.44 364.38 33.48 364.4 33.49 364.43 33.51 364.47 33.51 L366.27 33.51 Q366.32 33.51 366.37 33.49 366.42 33.48 366.46 33.44 366.5 33.41 366.52 33.34 366.54 33.28 366.54 33.2 L366.54 31.04 Q366.54 30.92 366.5 30.84 366.46 30.76 366.34 30.69 366.21 30.63 366.01 30.55 365.8 30.48 365.59 30.43 365.37 30.37 365.15 30.35 364.93 30.32 364.72 30.32 364.06 30.32 363.54 30.53 363.02 30.73 362.66 31.11 362.31 31.49 362.12 32.01 361.93 32.54 361.93 33.19 361.93 33.87 362.13 34.42 362.34 34.97 362.71 35.35 363.08 35.74 363.6 35.95 364.12 36.17 364.75 36.17 365.08 36.17 365.36 36.11 365.65 36.05 365.87 35.97 366.09 35.9 366.25 35.81 366.4 35.72 366.45 35.66 366.51 35.6 366.53 35.53 366.56 35.45 366.56 35.31 Z" fill="#585858" fill-rule="nonzero" id=""/>
        <path d="M371.39 36.46 Q370.97 35.57 370.77 34.64 370.56 33.71 370.56 32.77 370.56 31.83 370.77 30.9 370.98 29.97 371.38 29.08 371.4 29.03 371.4 28.99 371.41 28.95 371.38 28.93 371.35 28.91 371.28 28.89 371.22 28.88 371.11 28.88 371.03 28.88 370.97 28.89 370.91 28.89 370.87 28.91 370.83 28.92 370.81 28.94 370.78 28.95 370.77 28.98 370.53 29.42 370.35 29.88 370.17 30.34 370.04 30.82 369.92 31.29 369.86 31.78 369.8 32.26 369.8 32.76 369.8 33.26 369.87 33.74 369.94 34.22 370.06 34.7 370.19 35.18 370.37 35.64 370.55 36.1 370.77 36.55 370.77 36.57 370.79 36.58 370.81 36.6 370.85 36.61 370.88 36.62 370.95 36.63 371.01 36.64 371.1 36.64 371.21 36.64 371.27 36.62 371.33 36.61 371.36 36.59 371.4 36.57 371.4 36.53 371.41 36.5 371.39 36.46 Z" fill="#585858" fill-rule="nonzero" id=""/>
        <path d="M377.0 35.31 Q377.0 35.23 376.99 35.17 376.98 35.1 376.97 35.06 376.95 35.02 376.92 35.0 376.9 34.98 376.86 34.98 376.81 34.98 376.69 35.07 376.57 35.15 376.36 35.25 376.15 35.35 375.87 35.44 375.58 35.52 375.18 35.52 374.71 35.52 374.34 35.35 373.96 35.18 373.71 34.87 373.45 34.57 373.31 34.15 373.17 33.74 373.17 33.25 373.17 32.7 373.32 32.28 373.47 31.86 373.74 31.57 374.01 31.28 374.38 31.13 374.75 30.98 375.19 30.98 375.46 30.98 375.73 31.04 376.0 31.11 376.23 31.24 L376.23 32.89 374.91 32.89 Q374.84 32.89 374.8 32.97 374.76 33.04 374.76 33.2 374.76 33.28 374.77 33.34 374.78 33.4 374.8 33.44 374.82 33.48 374.85 33.49 374.87 33.51 374.91 33.51 L376.72 33.51 Q376.77 33.51 376.82 33.49 376.86 33.48 376.9 33.44 376.94 33.41 376.97 33.34 376.99 33.28 376.99 33.2 L376.99 31.04 Q376.99 30.92 376.95 30.84 376.91 30.76 376.78 30.69 376.65 30.63 376.45 30.55 376.25 30.48 376.03 30.43 375.82 30.37 375.6 30.35 375.38 30.32 375.16 30.32 374.5 30.32 373.99 30.53 373.47 30.73 373.11 31.11 372.75 31.49 372.56 32.01 372.37 32.54 372.37 33.19 372.37 33.87 372.58 34.42 372.78 34.97 373.15 35.35 373.52 35.74 374.05 35.95 374.57 36.17 375.2 36.17 375.52 36.17 375.81 36.11 376.1 36.05 376.32 35.97 376.54 35.9 376.69 35.81 376.84 35.72 376.9 35.66 376.96 35.6 376.98 35.53 377.0 35.45 377.0 35.31 Z" fill="#585858" fill-rule="nonzero" id=""/>
        <path d="M380.6 34.21 Q380.6 34.11 380.6 34.04 380.59 33.98 380.58 33.94 380.57 33.9 380.55 33.88 380.53 33.86 380.49 33.86 380.46 33.86 380.41 33.88 380.35 33.9 380.29 33.92 380.23 33.94 380.15 33.96 380.07 33.98 379.98 33.98 379.87 33.98 379.76 33.93 379.66 33.89 379.54 33.79 379.42 33.69 379.3 33.52 379.17 33.35 379.01 33.11 L379.01 30.51 Q379.01 30.47 379.0 30.45 378.98 30.43 378.94 30.41 378.9 30.39 378.83 30.38 378.76 30.37 378.65 30.37 378.54 30.37 378.47 30.38 378.4 30.39 378.36 30.41 378.32 30.43 378.3 30.45 378.29 30.47 378.29 30.51 L378.29 34.47 Q378.29 34.5 378.3 34.52 378.32 34.55 378.35 34.57 378.39 34.59 378.46 34.59 378.52 34.6 378.62 34.6 378.72 34.6 378.78 34.59 378.84 34.59 378.88 34.57 378.91 34.55 378.93 34.52 378.94 34.5 378.94 34.47 L378.94 33.89 Q379.11 34.13 379.25 34.28 379.39 34.43 379.52 34.51 379.65 34.6 379.77 34.63 379.9 34.66 380.02 34.66 380.08 34.66 380.15 34.66 380.23 34.65 380.31 34.63 380.39 34.61 380.45 34.59 380.51 34.57 380.54 34.55 380.57 34.53 380.57 34.51 380.58 34.49 380.59 34.46 380.6 34.43 380.6 34.37 380.6 34.31 380.6 34.21 Z" fill="#585858" fill-rule="nonzero" id=""/>
        <path d="M384.39 30.51 Q384.39 30.45 384.35 30.43 384.32 30.4 384.26 30.39 384.2 30.37 384.08 30.37 383.96 30.37 383.89 30.39 383.83 30.4 383.8 30.43 383.76 30.45 383.76 30.51 L383.76 30.9 Q383.51 30.62 383.19 30.47 382.87 30.32 382.51 30.32 382.2 30.32 381.95 30.4 381.7 30.48 381.52 30.63 381.34 30.79 381.24 31.01 381.14 31.24 381.14 31.52 381.14 31.85 381.28 32.1 381.41 32.35 381.67 32.51 381.92 32.67 382.29 32.75 382.66 32.83 383.12 32.83 L383.67 32.83 383.67 33.14 Q383.67 33.37 383.62 33.55 383.57 33.72 383.46 33.84 383.36 33.96 383.18 34.01 383.01 34.07 382.76 34.07 382.49 34.07 382.28 34.01 382.07 33.95 381.91 33.87 381.75 33.79 381.64 33.73 381.53 33.67 381.48 33.67 381.44 33.67 381.42 33.68 381.39 33.7 381.37 33.74 381.35 33.77 381.34 33.83 381.33 33.88 381.33 33.95 381.33 34.06 381.35 34.12 381.37 34.18 381.42 34.24 381.48 34.3 381.63 34.37 381.77 34.45 381.96 34.52 382.15 34.58 382.38 34.62 382.6 34.66 382.83 34.66 383.26 34.66 383.55 34.57 383.85 34.47 384.04 34.28 384.22 34.1 384.31 33.82 384.39 33.54 384.39 33.17 L384.39 30.51 Z M383.67 32.31 L383.05 32.31 Q382.75 32.31 382.53 32.26 382.31 32.21 382.17 32.11 382.02 32.01 381.95 31.87 381.88 31.74 381.88 31.56 381.88 31.25 382.08 31.07 382.28 30.88 382.63 30.88 382.91 30.88 383.16 31.03 383.4 31.17 383.67 31.47 L383.67 32.31 Z" fill="#585858" fill-rule="nonzero" id=""/>
        <path d="M389.37 32.55 Q389.37 32.03 389.26 31.62 389.14 31.2 388.93 30.92 388.71 30.63 388.39 30.47 388.07 30.32 387.65 30.32 387.48 30.32 387.33 30.35 387.18 30.39 387.04 30.46 386.89 30.54 386.75 30.65 386.61 30.76 386.45 30.92 L386.45 28.94 Q386.45 28.91 386.44 28.88 386.42 28.85 386.38 28.84 386.34 28.82 386.27 28.81 386.2 28.8 386.09 28.8 385.98 28.8 385.91 28.81 385.84 28.82 385.8 28.84 385.76 28.85 385.74 28.88 385.73 28.91 385.73 28.94 L385.73 34.47 Q385.73 34.5 385.74 34.53 385.76 34.55 385.8 34.57 385.83 34.59 385.9 34.59 385.96 34.6 386.05 34.6 386.14 34.6 386.2 34.59 386.26 34.59 386.3 34.57 386.34 34.55 386.35 34.53 386.37 34.5 386.37 34.47 L386.37 33.93 Q386.55 34.12 386.71 34.25 386.88 34.39 387.05 34.48 387.22 34.57 387.4 34.62 387.58 34.66 387.77 34.66 388.2 34.66 388.51 34.5 388.81 34.33 389.0 34.04 389.19 33.75 389.28 33.36 389.37 32.98 389.37 32.55 Z M388.6 32.47 Q388.6 32.77 388.56 33.05 388.51 33.34 388.4 33.56 388.29 33.78 388.1 33.91 387.91 34.04 387.63 34.04 387.49 34.04 387.35 34.0 387.21 33.96 387.07 33.87 386.93 33.78 386.78 33.63 386.63 33.48 386.45 33.27 L386.45 31.69 Q386.75 31.33 387.02 31.13 387.29 30.94 387.58 30.94 387.86 30.94 388.05 31.07 388.25 31.2 388.37 31.42 388.49 31.64 388.55 31.92 388.6 32.19 388.6 32.47 Z" fill="#585858" fill-rule="nonzero" id=""/>
        <path d="M393.93 30.51 Q393.93 30.47 393.92 30.45 393.9 30.43 393.86 30.41 393.82 30.39 393.75 30.38 393.68 30.37 393.57 30.37 393.46 30.37 393.39 30.38 393.32 30.39 393.28 30.41 393.24 30.43 393.23 30.45 393.21 30.47 393.21 30.51 L393.21 32.83 Q393.21 33.16 393.16 33.37 393.1 33.58 393.0 33.73 392.9 33.88 392.74 33.96 392.58 34.03 392.37 34.03 392.1 34.03 391.83 33.84 391.55 33.65 391.25 33.27 L391.25 30.51 Q391.25 30.47 391.24 30.45 391.22 30.43 391.18 30.41 391.14 30.39 391.07 30.38 391.0 30.37 390.89 30.37 390.78 30.37 390.71 30.38 390.64 30.39 390.6 30.41 390.56 30.43 390.54 30.45 390.53 30.47 390.53 30.51 L390.53 36.38 Q390.53 36.42 390.54 36.44 390.56 36.47 390.6 36.49 390.64 36.5 390.71 36.51 390.78 36.52 390.89 36.52 391.0 36.52 391.07 36.51 391.14 36.5 391.18 36.49 391.22 36.47 391.24 36.44 391.25 36.42 391.25 36.38 L391.25 34.01 Q391.57 34.34 391.88 34.5 392.2 34.66 392.52 34.66 392.92 34.66 393.19 34.53 393.46 34.39 393.62 34.17 393.79 33.95 393.86 33.65 393.93 33.34 393.93 32.92 L393.93 30.51 Z" fill="#585858" fill-rule="nonzero" id=""/>
        <g clip-path="url(#path3)" id="">
          <path d="M-8.24 305.48 L-8.24 17.24 426.76 17.24 426.76 305.48 -8.24 305.48 Z" fill="none" stroke="#D9D9D9" stroke-width="0.75" stroke-miterlimit="28.65" stroke-linejoin="round"/>
        </g>
      </g>
      <g id="">
        <text x="0.0 5.25390625 10.51 15.48 18.97 22.32 24.61 29.59 33.5 35.76 39.62" y="0.0 0.0 0.0 0.0 0.0 0.0 0.0 0.0 0.0 0.0 0.0" fill="#595959" font-family="Calibri" font-size="10.0" kerning="auto" letter-spacing="0.0" word-spacing="0.0" transform="matrix(0.0 1.0 -1.0 0.0 177.66 166.1) translate(-37.95 170.07) scale(1.0 -1.0) ">querties / </text>
        <text x="0.0 3.91113281 8.88671875" y="0.0 0.0 0.0" fill="#595959" font-family="Calibri" font-size="10.0" kerning="auto" letter-spacing="0.0" word-spacing="0.0" transform="matrix(0.0 1.0 -1.0 0.0 177.66 166.1) translate(3.93 170.07) scale(1.0 -1.0) ">sec</text>
      </g>
    </g>
  </g>
</svg>
